# Made in Blockbench 4.7.0
mtllib Fly_01_wings.mtl

o plane
v -0.15468253820693567 0.7691619607068975 0.1875
v -0.15468253820693567 0.7691619607068975 -0.1875
v -1.094375158992844 1.111182104032566 0.1875
v -1.094375158992844 1.111182104032566 -0.1875
v -0.15468253820693567 0.7691619607068975 0
v -1.094375158992844 1.111182104032566 0
v -0.4483364822025321 0.8760432554961689 0.5
v -0.4483364822025321 0.8760432554961689 -0.5
v -0.771355820597688 0.9936126797643675 -0.5
v -0.771355820597688 0.9936126797643675 0.5
v -1.0890310942533805 1.125864801232346 0.1875
v -0.7660117558582245 1.0082953769641474 0
v -0.7660117558582245 1.0082953769641474 0.5
v -1.0890310942533805 1.125864801232346 0
v -0.4429924174630685 0.8907259526959488 0
v -0.4429924174630685 0.8907259526959488 0.5
v -0.1493384734674721 0.7838446579066773 0
v -0.1493384734674721 0.7838446579066773 0.1875
v -0.1493384734674721 0.7838446579066773 -0.1875
v -0.4429924174630685 0.8907259526959488 -0.5
v -0.7660117558582245 1.0082953769641474 -0.5
v -1.0890310942533805 1.125864801232346 -0.1875
vt 1 0.6875
vt 0.6875 1
vt 0.6875 0.5
vt 1 0.5
vt 1 0.5
vt 0.6875 0.5
vt 0.6875 0
vt 1 0.3125
vt 0 0.3125
vt 0.34375 0
vt 0.34375 0.5
vt 0 0.5
vt 0 0.5
vt 0.34375 0.5
vt 0.34375 1
vt 0 0.6875
vt 0.6875 1
vt 0.34375 1
vt 0.34375 0.5
vt 0.6875 0.5
vt 0.6875 0.5
vt 0.34375 0.5
vt 0.34375 0
vt 0.6875 0
vt 0.4645625 0.625
vt 0 0.625
vt 0 0.5625
vt 0.4645625 0.5625
vt 0.1875 0.75
vt 0 0.75
vt 0 0.6875
vt 0.1875 0.6875
vt 0.46875 0.5
vt 0.125 0.5
vt 0.125 0.4375
vt 0.46875 0.4375
vt 0.6919375 0.625
vt 0.25 0.625
vt 0.25 0.5625
vt 0.6919375 0.5625
vt 0.625 0.75
vt 0.4375 0.75
vt 0.4375 0.6875
vt 0.625 0.6875
vt 0.6919375 0.9375
vt 0.25 0.9375
vt 0.25 0.875
vt 0.6919375 0.875
vt 0.625 0.8125
vt 0.4375 0.8125
vt 0.4375 0.75
vt 0.625 0.75
vt 0.46875 1
vt 0.125 1
vt 0.125 0.9375
vt 0.46875 0.9375
vt 0.4645625 0.9375
vt 0 0.9375
vt 0 0.875
vt 0.4645625 0.875
vt 0.1875 0.8125
vt 0 0.8125
vt 0 0.75
vt 0.1875 0.75
vn 0.34202014332566866 0.9396926207859084 0
vn 0.34202014332566866 0.9396926207859084 0
vn 0.34202014332566866 0.9396926207859084 0
vn 0.34202014332566866 0.9396926207859084 0
vn 0.34202014332566866 0.9396926207859084 0
vn 0.34202014332566866 0.9396926207859084 0
vn -0.6321056607217744 0.23006764541389682 0.7399400733959438
vn -0.9396926207859084 0.34202014332566866 0
vn 0 0 1
vn 0.6644630243886748 -0.24184476264797522 0.7071067811865476
vn 0.9396926207859084 -0.34202014332566866 0
vn 0.6644630243886748 -0.24184476264797522 -0.7071067811865476
vn 0.9396926207859084 -0.34202014332566866 0
vn 0 0 -1
vn -0.6321056607217744 0.23006764541389682 -0.7399400733959438
vn -0.9396926207859084 0.34202014332566866 0
usemtl m_105047f0-b8e0-ef5a-86a5-17e776ad1324
f 19/1/1 20/2/1 15/3/1 17/4/1
f 17/5/2 15/6/2 16/7/2 18/8/2
f 11/9/3 13/10/3 12/11/3 14/12/3
f 14/13/4 12/14/4 21/15/4 22/16/4
f 20/17/5 21/18/5 12/19/5 15/20/5
f 15/21/6 12/22/6 13/23/6 16/24/6
f 13/25/7 11/26/7 3/27/7 10/28/7
f 11/29/8 14/30/8 6/31/8 3/32/8
f 16/33/9 13/34/9 10/35/9 7/36/9
f 18/37/10 16/38/10 7/39/10 1/40/10
f 17/41/11 18/42/11 1/43/11 5/44/11
f 20/45/12 19/46/12 2/47/12 8/48/12
f 19/49/13 17/50/13 5/51/13 2/52/13
f 21/53/14 20/54/14 8/55/14 9/56/14
f 22/57/15 21/58/15 9/59/15 4/60/15
f 14/61/16 22/62/16 4/63/16 6/64/16
o plane
v 1.0953174617930643 1.1058380392931024 0.1875
v 1.0953174617930643 1.1058380392931024 -0.1875
v 0.1556248410071559 0.7638178959674339 0.1875
v 0.1556248410071559 0.7638178959674339 -0.1875
v 1.0953174617930643 1.1058380392931024 0
v 0.1556248410071559 0.7638178959674339 0
v 0.8016635177974679 0.9989567445038311 0.5
v 0.8016635177974679 0.9989567445038311 -0.5
v 0.4786441794023119 0.8813873202356325 -0.5
v 0.4786441794023119 0.8813873202356325 0.5
v 0.7963194530580043 1.013639441703611 -0.5
v 0.4733001146628483 0.8960700174354123 -0.5
v 0.4733001146628483 0.8960700174354123 0
v 0.7963194530580043 1.013639441703611 0
v 0.15028077626769232 0.7785005931672138 0
v 0.15028077626769232 0.7785005931672138 -0.1875
v 0.15028077626769232 0.7785005931672138 0.1875
v 0.4733001146628483 0.8960700174354123 0.5
v 0.7963194530580043 1.013639441703611 0.5
v 1.0899733970536007 1.1205207364928824 0
v 1.0899733970536007 1.1205207364928824 0.1875
v 1.0899733970536007 1.1205207364928824 -0.1875
vt 1 0.6875
vt 0.6875 1
vt 0.6875 0.5
vt 1 0.5
vt 1 0.5
vt 0.6875 0.5
vt 0.6875 0
vt 1 0.3125
vt 0 0.3125
vt 0.34375 0
vt 0.34375 0.5
vt 0 0.5
vt 0 0.5
vt 0.34375 0.5
vt 0.34375 1
vt 0 0.6875
vt 0.6875 1
vt 0.34375 1
vt 0.34375 0.5
vt 0.6875 0.5
vt 0.6875 0.5
vt 0.34375 0.5
vt 0.34375 0
vt 0.6875 0
vt 0.46875 1
vt 0.125 1
vt 0.125 0.9375
vt 0.46875 0.9375
vt 0.4645625 0.9375
vt 0 0.9375
vt 0 0.875
vt 0.4645625 0.875
vt 0.1875 0.8125
vt 0 0.8125
vt 0 0.75
vt 0.1875 0.75
vt 0.4645625 0.625
vt 0 0.625
vt 0 0.5625
vt 0.4645625 0.5625
vt 0.1875 0.75
vt 0 0.75
vt 0 0.6875
vt 0.1875 0.6875
vt 0.46875 0.5
vt 0.125 0.5
vt 0.125 0.4375
vt 0.46875 0.4375
vt 0.6919375 0.625
vt 0.25 0.625
vt 0.25 0.5625
vt 0.6919375 0.5625
vt 0.625 0.75
vt 0.4375 0.75
vt 0.4375 0.6875
vt 0.625 0.6875
vt 0.6919375 0.9375
vt 0.25 0.9375
vt 0.25 0.875
vt 0.6919375 0.875
vt 0.625 0.8125
vt 0.4375 0.8125
vt 0.4375 0.75
vt 0.625 0.75
vn -0.34202014332566866 0.9396926207859084 0
vn -0.34202014332566866 0.9396926207859084 0
vn -0.34202014332566866 0.9396926207859084 0
vn -0.34202014332566866 0.9396926207859084 0
vn -0.34202014332566866 0.9396926207859084 0
vn -0.34202014332566866 0.9396926207859084 0
vn 0 0 -1
vn -0.6321056607217744 -0.23006764541389682 -0.7399400733959438
vn -0.9396926207859084 -0.34202014332566866 0
vn -0.6321056607217744 -0.23006764541389682 0.7399400733959438
vn -0.9396926207859084 -0.34202014332566866 0
vn 0 0 1
vn 0.6644630243886748 0.24184476264797525 0.7071067811865476
vn 0.9396926207859084 0.34202014332566866 0
vn 0.6644630243886748 0.24184476264797525 -0.7071067811865476
vn 0.9396926207859084 0.34202014332566866 0
usemtl m_d341688e-c652-0807-a9a9-6c0d55ad1e31
f 44/65/17 33/66/17 36/67/17 42/68/17
f 42/69/18 36/70/18 41/71/18 43/72/18
f 39/73/19 40/74/19 35/75/19 37/76/19
f 37/77/20 35/78/20 34/79/20 38/80/20
f 33/81/21 34/82/21 35/83/21 36/84/21
f 36/85/22 35/86/22 40/87/22 41/88/22
f 34/89/23 33/90/23 30/91/23 31/92/23
f 38/93/24 34/94/24 31/95/24 26/96/24
f 37/97/25 38/98/25 26/99/25 28/100/25
f 40/101/26 39/102/26 25/103/26 32/104/26
f 39/105/27 37/106/27 28/107/27 25/108/27
f 41/109/28 40/110/28 32/111/28 29/112/28
f 43/113/29 41/114/29 29/115/29 23/116/29
f 42/117/30 43/118/30 23/119/30 27/120/30
f 33/121/31 44/122/31 24/123/31 30/124/31
f 44/125/32 42/126/32 27/127/32 24/128/32